<svg width="184" height="43" viewBox="0 0 184 43" fill="none" xmlns="http://www.w3.org/2000/svg">
<path d="M15.6002 18.2799C16.6646 17.7169 17.6925 17.1122 18.4843 16.1999C18.7655 15.8757 18.9333 15.4539 19.1607 15.0817C19.2082 14.9909 19.2812 14.9161 19.3708 14.8665C21.4007 14.0696 23.4068 13.2025 25.4739 12.5175C27.0124 12.0068 28.2856 11.1404 29.4906 10.1269C31.1704 8.71463 32.701 7.15388 33.8314 5.26033C34.7738 3.68238 35.4674 1.98249 36.0097 0.2245C36.0289 0.145263 36.0603 0.069514 36.1029 0C36.8151 2.59215 36.7535 5.15131 35.7342 7.65596C34.715 10.1606 32.9075 11.9846 30.6755 13.4507C32.3675 13.5755 33.8142 12.9378 35.1898 12.0513C34.1211 13.7576 32.7117 15.1161 31.037 16.2063C29.3622 17.2966 27.526 17.9923 25.5657 18.4018C25.9961 18.4018 26.4265 18.4126 26.8568 18.3983C27.2872 18.3839 27.7175 18.3559 28.1436 18.3129C28.5696 18.2699 29.0157 18.2182 29.4447 18.1343C29.8614 18.0525 30.2688 17.9249 30.6984 17.8123L28.4749 19.3716C27.3861 20.1366 26.2962 20.9017 25.205 21.6668C25.0872 21.7404 24.9594 21.7965 24.8255 21.8332C24.2919 22.0068 23.7568 22.1758 23.2203 22.3403C23.0737 22.3924 22.9203 22.4229 22.7649 22.4307C20.0666 22.4364 17.368 22.4376 14.6692 22.4342C14.5875 22.4342 14.5064 22.4271 14.4311 22.4235C13.8078 20.568 13.65 20.3521 12.0864 19.2303L14.3099 18.6507C13.9455 18.3538 13.6507 18.0812 13.3237 17.856C12.9493 17.5992 12.5526 17.374 12.1546 17.1545C11.4343 16.7614 10.7851 16.2503 10.2337 15.6426C9.62408 14.9684 9.00868 14.2999 8.4234 13.5891C8.47585 13.6112 8.52687 13.6366 8.57618 13.6651C9.39638 14.1803 10.2996 14.5497 11.2458 14.7568C13.196 15.1993 14.6269 16.3154 15.4969 18.1279C15.5113 18.1573 15.5256 18.1874 15.5421 18.2161C15.5598 18.2389 15.5792 18.2602 15.6002 18.2799Z" fill="#60D394"/>
<path d="M23.0331 7.15032L23.3659 7.22205L23.5811 7.21272C23.6851 7.24927 23.7922 7.27663 23.901 7.29449C24.1936 7.31816 24.4884 7.32748 24.7818 7.34254L24.7746 7.33609L25.0084 7.53118L24.9905 7.55844L24.3213 7.36191L24.3034 7.41929L24.8055 7.61151C24.3751 7.81952 23.9577 7.93069 23.5259 7.8604C23.3329 7.82884 23.2332 7.87116 23.1321 8.00815C23.0453 8.1265 22.9506 8.23839 22.8452 8.36678L23.7152 8.74549C23.0152 9.16724 22.2484 9.48498 21.6789 10.0136C21.1094 10.5422 20.7465 11.2803 20.266 11.9566L20.0479 11.8749L20.7601 10.799C20.1813 11.2559 19.7359 11.8189 19.3543 12.4379C18.994 13.0414 18.7507 13.7074 18.6371 14.401C18.4786 15.2732 18.0131 15.9539 17.3654 16.5298C16.8792 16.9669 16.3358 17.3359 15.7501 17.6265C15.2897 17.0384 14.883 16.4431 14.3995 15.918C13.6292 15.081 12.6631 14.5696 11.5305 14.358C9.88085 14.0481 8.45639 13.2706 7.17824 12.2062C7.11641 12.1511 7.04711 12.105 6.97239 12.0692C7.80749 13.363 8.77319 14.5676 9.85431 15.6641C10.9445 16.7665 12.1259 17.7535 13.5546 18.5202C12.5268 18.8788 11.5076 18.8681 10.4884 18.9735C12.138 19.5954 13.3273 20.6469 13.8236 22.4364H12.8553C12.5325 22.4364 12.1596 22.534 11.9006 22.4041C11.6417 22.2743 11.5277 21.9143 11.3369 21.6632C10.3284 20.3385 9.09474 19.3192 7.4594 18.8853C6.86337 18.7268 6.24007 18.6701 5.63615 18.541C5.29376 18.4611 4.95805 18.3548 4.63199 18.2233C5.41021 18.3187 6.1705 18.234 6.9272 18.0619C7.30591 17.9758 7.68175 17.8776 8.05974 17.7893C8.36242 17.7176 8.66367 17.7047 8.96205 17.8195C9.04277 17.8441 9.12526 17.8626 9.20878 17.8747L9.22815 17.8166C9.15642 17.7822 9.08829 17.7449 9.01728 17.7133C7.8625 17.1811 6.6984 16.6668 5.5551 16.1102C4.8443 15.7638 4.30564 15.1922 3.81648 14.5811C2.99379 13.5554 2.3626 12.4157 1.83829 11.2143C1.82682 11.1877 1.81749 11.1598 1.7931 11.0923C2.25358 11.5464 2.6617 11.9889 3.11285 12.3834C3.77798 12.9649 4.46081 13.5253 5.16133 14.0646C5.3765 14.2303 5.6634 14.3107 5.9252 14.401C6.02561 14.4347 6.154 14.3874 6.28383 14.3458C3.46717 11.8139 2.07929 8.6795 2.12017 4.91895C2.35184 5.89011 2.62727 6.84907 3.07125 7.75138C2.45728 5.27829 1.95951 2.7593 0.342102 0.660614C0.378077 0.686034 0.41212 0.714084 0.443952 0.744533C1.85192 2.31173 3.13724 3.97217 4.12561 5.83703C4.46057 6.46965 4.703 7.15104 5.00496 7.8023C5.45188 8.78919 6.2172 9.59744 7.17824 10.0975C8.68447 10.9059 10.1656 11.7666 11.6525 12.6136C12.8047 13.2714 13.8457 14.1072 14.7367 15.0903C14.8424 15.1958 14.9384 15.3105 15.0236 15.4332C15.2875 15.8585 15.3578 15.9116 15.8039 15.4626C16.2845 14.9799 16.4746 14.3551 16.5979 13.7067C16.628 13.5468 16.641 13.3833 16.6632 13.2047C16.2601 13.1164 15.9574 13.3252 15.6067 13.4277L16.032 12.8984C15.5608 12.8518 15.2043 13.0361 14.8442 13.2534L15.4381 12.491L13.9319 12.7062L13.9183 12.6674L14.6599 12.1209C14.449 12.1209 14.3013 12.1316 14.1578 12.1209C13.2821 12.0441 12.7986 11.5614 12.7276 10.6756C12.7032 10.3636 12.724 10.0487 12.724 9.66142C12.8144 9.9347 12.8711 10.1441 12.9528 10.3435C13.2548 11.0816 13.8724 11.0357 14.2604 10.5766C14.8707 9.85383 15.652 9.29511 16.5334 8.95134C16.5684 8.93038 16.6015 8.90638 16.6324 8.87962L15.6124 8.52099V8.49804C15.7171 8.50593 15.8233 8.50521 15.9266 8.52314C16.6438 8.64723 17.3152 8.3926 18.0016 8.26206C19.4705 7.98305 20.9423 7.92065 22.4098 8.26206C22.4729 8.27712 22.5741 8.27641 22.6092 8.23839C22.7706 8.06123 22.9184 7.87116 23.0625 7.68037C23.0833 7.6524 23.0589 7.59143 23.0582 7.54624C23.0546 7.4114 23.0518 7.27727 23.0489 7.14243L23.0331 7.15032Z" fill="#ED4D6E"/>
<path d="M23.6471 29.761H22.3654V23.0726C22.8136 23.0726 23.2655 23.0654 23.7167 23.0805C23.7733 23.0805 23.8465 23.1902 23.8788 23.2634C24.3761 24.379 24.87 25.496 25.3606 26.6144C25.3832 26.6794 25.4272 26.7348 25.4854 26.7715V23.0841H26.7535V29.7653C26.2995 29.7653 25.8404 29.7717 25.3821 29.7559C25.3276 29.7559 25.2638 29.6347 25.2286 29.5587C24.7462 28.5 24.2658 27.4402 23.7877 26.3791C23.7547 26.2966 23.706 26.2213 23.6442 26.1575L23.6471 29.761Z" fill="#60D394"/>
<path d="M3.89324 26.4272C4.41612 26.6718 4.30997 27.0785 4.31212 27.4486C4.31212 28.2088 4.31212 28.9691 4.31212 29.7481H3.03397V27.2563H1.4388V29.7531H0.161377V23.0712H0.950355C1.67908 23.0712 2.40781 23.0654 3.13582 23.0769C3.25459 23.0829 3.36783 23.1289 3.45715 23.2074C3.74405 23.4786 4.12563 23.7231 4.26765 24.0631C4.40966 24.4031 4.30781 24.8428 4.31284 25.2394C4.31284 25.3219 4.31284 25.4044 4.31284 25.4876C4.31068 25.8383 4.39747 26.2199 3.89324 26.4272ZM3.01246 24.3723H1.44813V25.933H3.01246V24.3723Z" fill="#60D394"/>
<path d="M9.18945 29.7674V23.0712H9.42615C10.3363 23.0712 11.2465 23.0654 12.1567 23.0783C12.29 23.0872 12.4163 23.1408 12.5154 23.2304C12.8023 23.4929 13.1695 23.7325 13.3086 24.0674C13.4478 24.4024 13.351 24.8306 13.3517 25.2186C13.3517 26.3425 13.356 27.4665 13.3459 28.5897C13.3389 28.7152 13.2899 28.8347 13.2068 28.929C12.9436 29.2159 12.7047 29.5853 12.3712 29.7244C12.0377 29.8635 11.6066 29.7638 11.2178 29.7653C10.5501 29.7689 9.8816 29.7674 9.18945 29.7674ZM10.4805 28.4606H12.0499V24.3723H10.4812L10.4805 28.4606Z" fill="#60D394"/>
<path d="M31.6445 28.1041C31.4415 28.566 31.2407 28.972 31.0851 29.3952C30.9789 29.6821 30.8347 29.8098 30.5113 29.7753C30.1878 29.7409 29.8542 29.7682 29.4906 29.7682C29.7101 29.2661 29.9167 28.7898 30.1239 28.315C30.3649 27.7627 30.6131 27.2133 30.8412 26.6553C30.8842 26.5381 30.8842 26.4095 30.8412 26.2924C30.4273 25.2846 29.9991 24.284 29.576 23.2799C29.5509 23.2211 29.5293 23.1601 29.4963 23.0748C29.9482 23.0748 30.3757 23.0683 30.8032 23.0819C30.8641 23.0819 30.9466 23.173 30.9768 23.2412C31.1661 23.6808 31.344 24.1255 31.5262 24.5681C31.557 24.6398 31.5936 24.7115 31.6467 24.8256C31.8712 24.279 32.0835 23.7791 32.28 23.2734C32.3402 23.1164 32.4235 23.0633 32.5899 23.0697C32.975 23.0834 33.3616 23.074 33.7848 23.074C33.5438 23.6478 33.3179 24.1829 33.0905 24.7237C32.8753 25.233 32.6637 25.7444 32.4385 26.2493C32.4033 26.3225 32.3857 26.4029 32.3872 26.4842C32.3887 26.5654 32.4092 26.6451 32.4471 26.717C32.861 27.6444 33.2634 28.5768 33.6665 29.5071C33.6987 29.5788 33.7288 29.657 33.7762 29.7717C33.3157 29.7717 32.8825 29.7789 32.4507 29.7639C32.3919 29.7639 32.3173 29.6577 32.2843 29.586C32.0792 29.1083 31.8748 28.6327 31.6445 28.1041Z" fill="#60D394"/>
<path d="M6.36634 25.7559H8.03324V27.0275H6.36634V28.4728H8.45857V29.7545H5.07385V23.0905H8.46359V24.35H6.36634V25.7559Z" fill="#60D394"/>
<path d="M19.4799 28.4814H21.5714V29.7545H18.1867V23.0905H21.5764V24.35H19.4792V25.7473H21.1439V27.0268H19.4799V28.4814Z" fill="#60D394"/>
<path d="M14.7224 39.5917C14.8407 38.9791 14.9791 38.3723 15.0724 37.7519C15.2775 36.397 15.3808 35.0357 14.992 33.6966C14.8638 33.2704 14.6769 32.8642 14.4369 32.4894C14.0149 31.8272 13.7043 31.1004 13.5174 30.3377C13.5086 30.2867 13.5034 30.2352 13.5016 30.1835H16.6489C16.8426 31.1912 16.9774 32.1918 16.7852 33.2232C16.4538 34.997 16.0478 36.7463 15.3313 38.4096C15.1556 38.8163 14.9476 39.2101 14.7575 39.6096L14.7224 39.5917Z" fill="#ED4D6E"/>
<path d="M17.0226 25.7494V27.0311H15.3492V29.7466H14.0675V23.0912H17.4537V24.3507H15.3564V25.7494H17.0226Z" fill="#60D394"/>
<path d="M17.7197 42.2513C17.0391 41.4566 16.6604 40.5241 16.5076 39.5027C16.2725 37.9607 16.4135 36.3846 16.9186 34.9087C17.2772 33.8572 17.3095 32.81 17.1761 31.7342C17.1393 31.497 17.1273 31.2566 17.1402 31.0169C17.1943 31.0642 17.2438 31.1165 17.288 31.1733C18.6163 33.2282 18.8968 35.3871 17.9557 37.6809C17.7004 38.3035 17.4579 38.9426 17.3102 39.5974C17.1058 40.5155 17.2177 41.4193 17.7197 42.2513Z" fill="#60D394"/>
<path d="M28.7317 29.7617H27.4808V23.0855H28.7317V29.7617Z" fill="#60D394"/>
<path d="M33.6858 3.18319C33.2418 3.86673 32.8093 4.55888 32.3481 5.23238C31.3225 6.73861 30.2251 8.18675 28.8917 9.4405C28.348 9.95119 27.7685 10.4174 27.0856 10.7351C26.869 10.8353 26.6402 10.9065 26.405 10.9467C26.6409 10.7488 26.902 10.5745 27.1072 10.3485C27.5676 9.84145 28.0439 9.33937 28.4362 8.78135C29.5975 7.12736 30.9789 5.67493 32.4342 4.28561C32.8349 3.90307 33.2351 3.52054 33.6349 3.138L33.6858 3.18319Z" fill="#ED4D6E"/>
<path d="M4.73385 4.89813C5.24453 5.53027 5.7533 6.16002 6.26016 6.78738C7.09867 7.84501 8.09572 8.76657 9.21596 9.5194C9.92245 9.98776 10.5544 10.5458 10.9854 11.2953C11.0263 11.367 11.0658 11.4388 11.1038 11.5105C11.1217 11.5456 11.1339 11.5822 11.1755 11.6877C10.7832 11.5012 10.4389 11.3505 10.1075 11.177C9.06122 10.6399 8.10491 9.94323 7.27292 9.112C6.97957 8.81505 6.74933 8.45284 6.50905 8.10784C5.87069 7.19191 5.28972 6.24298 4.83139 5.22161C4.79123 5.13124 4.75967 5.03871 4.72094 4.94619C4.71807 4.93686 4.72883 4.9175 4.73385 4.89813Z" fill="#60D394"/>
<path d="M14.4936 38.2131C14.3637 37.5963 14.2275 36.9809 14.1055 36.3626C13.9083 35.3656 13.9449 34.3607 14.0116 33.3501C14.0302 33.0632 13.985 32.7677 13.9714 32.5074C14.4132 32.8954 14.6578 33.4462 14.7919 34.0602C15.0466 35.2293 14.9426 36.3906 14.7202 37.5489C14.6786 37.7641 14.6248 37.9793 14.5768 38.1988L14.4936 38.2131Z" fill="#60D394"/>
<path d="M22.775 13.1021C22.2729 13.2649 21.7708 13.4134 21.2788 13.5941C20.7767 13.7792 20.2839 13.995 19.7869 14.198C19.707 14.241 19.6232 14.2764 19.5366 14.3035C19.4046 14.3229 19.2717 14.3351 19.1385 14.34C19.1583 14.215 19.1895 14.0921 19.2317 13.9728C19.6693 13.011 20.375 12.2844 21.24 11.7027C21.2612 11.6904 21.2835 11.6803 21.3067 11.6726C21.311 11.6726 21.3197 11.6797 21.3412 11.6919C20.9467 12.27 20.4769 12.8073 20.2768 13.5568C21.1138 13.2376 21.91 12.983 22.775 13.1021Z" fill="#60D394"/>
<path d="M11.3814 22.4371C11.0292 22.4371 10.71 22.4371 10.3909 22.4335C10.3344 22.4263 10.2812 22.4026 10.2381 22.3654C9.79912 22.0348 9.36303 21.7005 8.94702 21.3856C9.66571 21.1088 10.8786 21.4079 11.3814 22.4371Z" fill="black"/>
<path d="M23.5819 7.21272L23.3667 7.22205C23.3129 7.05851 23.2232 6.89641 23.2125 6.73001C23.2056 6.45025 23.2144 6.17031 23.239 5.89154C23.2548 5.59604 23.4155 5.47554 23.7002 5.56591C23.8646 5.61688 24.0216 5.68922 24.1671 5.78109C24.2482 5.83345 24.2919 5.9439 24.3307 6.04575C24.0696 6.00702 23.99 5.62688 23.6392 5.75885L23.8013 5.84205L23.7009 5.9812L23.8652 6.0271C23.65 6.30612 23.6708 6.58154 23.8429 6.8584C23.8558 6.89283 23.8695 6.93013 23.8824 6.96025C23.8795 7.16252 23.8071 7.27943 23.5819 7.21272Z" fill="#ED4D6E"/>
<path d="M23.8845 6.96238C23.8716 6.92866 23.858 6.89495 23.8451 6.86053C23.825 6.68169 23.8054 6.50309 23.7863 6.32474C24.0323 6.62885 24.3464 6.78234 24.7646 6.81247L24.6405 7.08574L24.5587 7.1381L24.2891 7.19046L24.4511 6.9674C24.2525 7.02549 24.0717 7.47449 23.8845 6.96238Z" fill="#60D394"/>
<path d="M24.5573 7.14097L24.6391 7.08861C24.8098 6.96954 24.9568 6.84761 24.6843 6.6769C24.6739 6.67008 24.6654 6.66068 24.6598 6.64961C24.6541 6.63855 24.6514 6.6262 24.652 6.61379C24.7402 6.34984 24.5803 6.20136 24.3895 6.05146C24.5939 5.98762 24.771 6.06365 24.8299 6.22862C24.9305 6.52928 25.0009 6.83924 25.04 7.15388C25.0472 7.20193 24.8679 7.27653 24.7753 7.33821L24.7825 7.34467L24.5573 7.14097Z" fill="#ED4D6E"/>
<path d="M23.0418 7.14098C22.983 7.11445 22.8947 7.10297 22.8718 7.05778C22.7656 6.85552 22.6774 6.64393 22.5849 6.43377C22.5717 6.39891 22.5646 6.36202 22.5641 6.32475C22.7054 6.27244 22.8522 6.23634 23.0016 6.21716C23.0432 6.21716 23.1357 6.34985 23.1314 6.41728C23.1149 6.66258 23.0683 6.90573 23.0325 7.14959L23.0418 7.14098Z" fill="#60D394"/>
<path d="M23.5166 8.02463C23.9168 7.93282 24.2676 7.83312 24.6248 7.77646C24.8528 7.74059 24.8528 7.94358 24.8794 8.07914C24.5208 8.12074 24.1793 8.1774 23.8343 8.19175C23.7303 8.19605 23.6206 8.08272 23.5166 8.02463Z" fill="#60D394"/>
<path d="M24.1033 6.27526C24.084 6.27526 24.0467 6.2688 24.0101 6.26091C23.9735 6.25302 23.9197 6.25302 23.9054 6.22935C23.8972 6.21187 23.8937 6.19258 23.8952 6.17335C23.8967 6.15412 23.9032 6.13561 23.914 6.11961C23.9305 6.10557 23.95 6.09559 23.9711 6.09048C23.9921 6.08537 24.0141 6.08528 24.0352 6.0902C24.1213 6.13803 24.1969 6.20266 24.2575 6.28028C24.2941 6.33335 24.2755 6.42373 24.2812 6.49545C24.2217 6.49043 24.1378 6.50621 24.1105 6.47465C24.0832 6.44309 24.1033 6.35559 24.1033 6.27526Z" fill="#ED4D6E"/>
<path d="M24.3867 6.63891V6.24585C24.6112 6.31327 24.614 6.46748 24.5086 6.6762L24.3867 6.63891Z" fill="#60D394"/>
<path d="M23.4843 29.6563H22.2026V22.9672C22.6509 22.9672 23.1027 22.9607 23.5539 22.9758C23.6113 22.9758 23.6837 23.0848 23.716 23.158C24.2109 24.274 24.7048 25.3903 25.1978 26.5068C25.2202 26.5721 25.2642 26.6278 25.3226 26.6646V22.9786H26.5936V29.6627C26.1403 29.6627 25.6805 29.6699 25.2222 29.6541C25.1684 29.6541 25.1039 29.5322 25.0687 29.4562C24.5858 28.3975 24.1054 27.3376 23.6278 26.2766C23.5951 26.1939 23.5463 26.1186 23.4843 26.0549V29.6563Z" fill="#ED4D6E"/>
<path d="M3.72972 26.3218C4.25332 26.5664 4.14716 26.9731 4.1486 27.3432C4.1486 28.1034 4.1486 28.8637 4.1486 29.6434H2.86902V27.1524H1.27599V29.6484H0V22.9658H0.788979C1.51699 22.9658 2.24572 22.9607 2.97373 22.9722C3.09229 22.9784 3.20516 23.025 3.29363 23.1042C3.58053 23.3746 3.96211 23.6199 4.10413 23.9592C4.24614 24.2984 4.14429 24.7395 4.14931 25.1354C4.14931 25.2179 4.14931 25.3011 4.14931 25.3836C4.14788 25.7329 4.23538 26.1131 3.72972 26.3218ZM2.84893 24.2676H1.28532V25.8254H2.84893V24.2676Z" fill="#ED4D6E"/>
<path d="M9.02734 29.6627V22.9657H9.26332C10.1735 22.9657 11.0837 22.96 11.9939 22.9729C12.1271 22.9821 12.2534 23.0356 12.3525 23.125C12.6394 23.3875 13.0067 23.6271 13.1451 23.962C13.2835 24.297 13.1874 24.7252 13.1881 25.1132C13.1881 26.2371 13.1924 27.3618 13.1824 28.4843C13.176 28.6099 13.1269 28.7296 13.0432 28.8236C12.78 29.1105 12.5412 29.4806 12.2076 29.619C11.8741 29.7574 11.4431 29.6592 11.0543 29.6599C10.3873 29.6627 9.71878 29.6627 9.02734 29.6627ZM10.3184 28.3559H11.8885V24.2676H10.3191L10.3184 28.3559Z" fill="#ED4D6E"/>
<path d="M31.4817 27.9987C31.2787 28.4613 31.0779 28.8673 30.9222 29.2897C30.8168 29.5766 30.6719 29.7036 30.3484 29.6699C30.0249 29.6362 29.6943 29.6627 29.3306 29.6627L29.9632 28.2103C30.2042 27.6573 30.4524 27.1079 30.6805 26.5506C30.7235 26.4332 30.7235 26.3043 30.6805 26.1869C30.2666 25.1828 29.8392 24.1786 29.4153 23.1744C29.3909 23.1156 29.3694 23.0547 29.3364 22.9693C29.7875 22.9693 30.215 22.9629 30.6425 22.9765C30.7034 22.9765 30.7859 23.0683 30.8161 23.1357C31.0061 23.5754 31.1833 24.0201 31.3662 24.4626C31.3963 24.5344 31.4329 24.6061 31.486 24.7201C31.7105 24.1736 31.9228 23.6744 32.1193 23.168C32.1803 23.0109 32.2628 22.9585 32.4292 22.9643C32.815 22.9786 33.2016 22.9686 33.6241 22.9686C33.3838 23.5424 33.1572 24.0775 32.9298 24.6183C32.7146 25.1275 32.5038 25.6389 32.2778 26.1446C32.2429 26.2177 32.2255 26.298 32.227 26.3791C32.2285 26.4601 32.2489 26.5397 32.2864 26.6115C32.7003 27.5389 33.1034 28.4714 33.5093 29.4024C33.5416 29.4741 33.5717 29.5515 33.6191 29.667C33.1586 29.667 32.7261 29.6735 32.2936 29.6584C32.2355 29.6584 32.1602 29.553 32.1279 29.4805C31.9178 29.0036 31.7126 28.5273 31.4817 27.9987Z" fill="#ED4D6E"/>
<path d="M6.2035 25.6504H7.86825V26.9221H6.20422V28.3674H8.29573V29.6498H4.91101V22.9851H8.30075V24.2446H6.2035V25.6504Z" fill="#ED4D6E"/>
<path d="M19.3171 28.376H21.4086V29.6491H18.0246V22.9851H21.4136V24.2446H19.3164V25.6418H20.9811V26.9221H19.3171V28.376Z" fill="#ED4D6E"/>
<path d="M16.8597 25.6461V26.9278H15.1878V29.6412H13.9047V22.9865H17.2908V24.2453H15.1936V25.6461H16.8597Z" fill="#ED4D6E"/>
<path d="M28.569 29.6562H27.3188V22.9808H28.569V29.6562Z" fill="#ED4D6E"/>
<path d="M50.144 10.048H61.792C64.2453 10.048 66.0907 10.656 67.328 11.872C68.5653 13.0667 69.184 14.752 69.184 16.928C69.184 20 67.904 22.048 65.344 23.072L69.824 32H64.8L60.928 23.808H54.784V32H50.144V10.048ZM61.376 19.936C62.3787 19.936 63.1467 19.6693 63.68 19.136C64.2133 18.6027 64.48 17.8667 64.48 16.928C64.48 15.9893 64.2133 15.264 63.68 14.752C63.1467 14.24 62.3787 13.984 61.376 13.984H54.784V19.936H61.376ZM80.3098 32.384C77.6004 32.384 75.5738 31.6693 74.2298 30.24C72.9071 28.8107 72.2458 26.592 72.2458 23.584C72.2458 20.576 72.9071 18.3573 74.2298 16.928C75.5738 15.4987 77.6004 14.784 80.3098 14.784C82.8058 14.784 84.6724 15.5093 85.9098 16.96C87.1471 18.3893 87.7658 20.5973 87.7658 23.584V24.608H76.6938C76.7364 26.1013 77.0351 27.2107 77.5898 27.936C78.1444 28.64 79.0724 28.992 80.3738 28.992C81.2911 28.992 82.0271 28.736 82.5818 28.224C83.1578 27.712 83.4458 26.9867 83.4458 26.048H87.7658C87.7658 28.16 87.0831 29.7493 85.7178 30.816C84.3524 31.8613 82.5498 32.384 80.3098 32.384ZM83.2218 21.696C83.2218 19.3707 82.2511 18.208 80.3098 18.208C79.2004 18.208 78.3578 18.496 77.7818 19.072C77.2271 19.648 76.8858 20.5227 76.7578 21.696H83.2218ZM96.779 32.384C94.6457 32.384 92.9923 31.6587 91.819 30.208C90.6457 28.736 90.059 26.5173 90.059 23.552C90.059 20.6507 90.6457 18.464 91.819 16.992C93.0137 15.52 94.5923 14.784 96.555 14.784C97.6857 14.784 98.6777 14.9867 99.531 15.392C100.406 15.7973 101.088 16.3733 101.579 17.12H101.771V8.864H106.155V32H102.411L102.123 29.792H101.899C101.366 30.6453 100.651 31.296 99.755 31.744C98.859 32.1707 97.867 32.384 96.779 32.384ZM98.187 28.576C100.576 28.576 101.771 27.008 101.771 23.872V23.36C101.771 20.1813 100.576 18.592 98.187 18.592C96.8857 18.592 95.9577 18.9867 95.403 19.776C94.8483 20.544 94.571 21.7173 94.571 23.296V23.872C94.571 25.4507 94.8483 26.6347 95.403 27.424C95.9577 28.192 96.8857 28.576 98.187 28.576Z" fill="#ED4D6E"/>
<path d="M111.126 18.752H108.726V15.168H111.126V13.248C111.126 11.9253 111.478 10.8267 112.182 9.952C112.886 9.056 114.048 8.608 115.67 8.608C116.118 8.608 116.608 8.66133 117.142 8.768C117.675 8.87467 118.123 8.992 118.486 9.12V12.192H116.885C115.968 12.192 115.51 12.6507 115.51 13.568V15.168H118.486V18.752H115.51V32H111.126V18.752ZM128.31 32.384C125.6 32.384 123.574 31.6693 122.23 30.24C120.907 28.8107 120.246 26.592 120.246 23.584C120.246 20.576 120.907 18.3573 122.23 16.928C123.574 15.4987 125.6 14.784 128.31 14.784C130.806 14.784 132.672 15.5093 133.91 16.96C135.147 18.3893 135.766 20.5973 135.766 23.584V24.608H124.694C124.736 26.1013 125.035 27.2107 125.59 27.936C126.144 28.64 127.072 28.992 128.374 28.992C129.291 28.992 130.027 28.736 130.582 28.224C131.158 27.712 131.446 26.9867 131.446 26.048H135.766C135.766 28.16 135.083 29.7493 133.718 30.816C132.352 31.8613 130.55 32.384 128.31 32.384ZM131.222 21.696C131.222 19.3707 130.251 18.208 128.31 18.208C127.2 18.208 126.358 18.496 125.782 19.072C125.227 19.648 124.886 20.5227 124.758 21.696H131.222ZM139.147 15.168H142.891L143.211 17.376H143.435C144.8 15.648 146.55 14.784 148.683 14.784C150.411 14.784 151.766 15.2533 152.747 16.192C153.75 17.1307 154.251 18.6347 154.251 20.704V32H149.867V21.632C149.867 20.5867 149.622 19.8293 149.131 19.36C148.64 18.8907 147.915 18.656 146.955 18.656C145.974 18.656 145.152 19.008 144.491 19.712C143.851 20.3947 143.531 21.248 143.531 22.272V32H139.147V15.168ZM158.678 8.864H163.062V13.024H158.678V8.864ZM158.678 15.168H163.062V32H158.678V15.168ZM171.456 23.296L166.016 15.168H171.296L174.336 20.064H174.528L177.632 15.168H182.592L177.056 23.2L182.912 32H177.664L174.176 26.432H173.984L170.464 32H165.536L171.456 23.296Z" fill="#60D394"/>
</svg>
