<svg width="169" height="43" viewBox="0 0 169 43" fill="none" xmlns="http://www.w3.org/2000/svg">
<path d="M15.6002 18.2799C16.6646 17.7169 17.6925 17.1122 18.4843 16.1999C18.7655 15.8757 18.9333 15.4539 19.1607 15.0817C19.2082 14.9909 19.2812 14.9161 19.3708 14.8665C21.4007 14.0696 23.4068 13.2025 25.4739 12.5175C27.0124 12.0068 28.2856 11.1404 29.4906 10.1269C31.1704 8.71463 32.701 7.15388 33.8314 5.26033C34.7738 3.68238 35.4674 1.98249 36.0097 0.2245C36.0289 0.145263 36.0603 0.069514 36.1029 0C36.8151 2.59215 36.7535 5.15131 35.7342 7.65596C34.715 10.1606 32.9075 11.9846 30.6755 13.4507C32.3675 13.5755 33.8142 12.9378 35.1898 12.0513C34.1211 13.7576 32.7117 15.1161 31.037 16.2063C29.3622 17.2966 27.526 17.9923 25.5657 18.4018C25.9961 18.4018 26.4265 18.4126 26.8568 18.3983C27.2872 18.3839 27.7175 18.3559 28.1436 18.3129C28.5696 18.2699 29.0157 18.2182 29.4447 18.1343C29.8614 18.0525 30.2688 17.9249 30.6984 17.8123L28.4749 19.3716C27.3861 20.1366 26.2962 20.9017 25.205 21.6668C25.0872 21.7404 24.9594 21.7965 24.8255 21.8332C24.2919 22.0068 23.7568 22.1758 23.2203 22.3403C23.0737 22.3924 22.9203 22.4229 22.7649 22.4307C20.0666 22.4364 17.368 22.4376 14.6692 22.4342C14.5875 22.4342 14.5064 22.4271 14.4311 22.4235C13.8078 20.568 13.65 20.3521 12.0864 19.2303L14.3099 18.6507C13.9455 18.3538 13.6507 18.0812 13.3237 17.856C12.9493 17.5992 12.5526 17.374 12.1546 17.1545C11.4343 16.7614 10.7851 16.2503 10.2337 15.6426C9.62408 14.9684 9.00868 14.2999 8.4234 13.5891C8.47585 13.6112 8.52687 13.6366 8.57618 13.6651C9.39638 14.1803 10.2996 14.5497 11.2458 14.7568C13.196 15.1993 14.6269 16.3154 15.4969 18.1279C15.5113 18.1573 15.5256 18.1874 15.5421 18.2161C15.5598 18.2389 15.5792 18.2602 15.6002 18.2799Z" fill="#60D394"/>
<path d="M23.0331 7.15032L23.3659 7.22205L23.5811 7.21272C23.6852 7.24927 23.7922 7.27663 23.901 7.29449C24.1937 7.31816 24.4884 7.32748 24.7818 7.34254L24.7746 7.33609L25.0084 7.53118L24.9905 7.55844L24.3213 7.36191L24.3034 7.41929L24.8055 7.61151C24.3751 7.81952 23.9577 7.93069 23.5259 7.8604C23.3329 7.82884 23.2332 7.87116 23.1321 8.00815C23.0453 8.1265 22.9506 8.23839 22.8452 8.36678L23.7152 8.74549C23.0152 9.16724 22.2485 9.48498 21.679 10.0136C21.1095 10.5422 20.7465 11.2803 20.266 11.9566L20.0479 11.8749L20.7602 10.799C20.1813 11.2559 19.7359 11.8189 19.3543 12.4379C18.9941 13.0414 18.7507 13.7074 18.6371 14.401C18.4786 15.2732 18.0131 15.9539 17.3654 16.5298C16.8792 16.9669 16.3358 17.3359 15.7501 17.6265C15.2897 17.0384 14.883 16.4431 14.3996 15.918C13.6292 15.081 12.6631 14.5696 11.5305 14.358C9.88087 14.0481 8.4564 13.2706 7.17826 12.2062C7.11643 12.1511 7.04713 12.105 6.9724 12.0692C7.8075 13.363 8.77321 14.5676 9.85433 15.6641C10.9446 16.7665 12.1259 17.7535 13.5546 18.5202C12.5268 18.8788 11.5076 18.8681 10.4884 18.9735C12.1381 19.5954 13.3273 20.6469 13.8236 22.4364H12.8553C12.5325 22.4364 12.1596 22.534 11.9007 22.4041C11.6417 22.2743 11.5277 21.9143 11.3369 21.6632C10.3284 20.3385 9.09476 19.3192 7.45942 18.8853C6.86338 18.7268 6.24009 18.6701 5.63616 18.541C5.29378 18.4611 4.95807 18.3548 4.63201 18.2233C5.41023 18.3187 6.17052 18.234 6.92722 18.0619C7.30593 17.9758 7.68177 17.8776 8.05976 17.7893C8.36244 17.7176 8.66369 17.7047 8.96206 17.8195C9.04279 17.8441 9.12527 17.8626 9.2088 17.8747L9.22816 17.8166C9.15644 17.7822 9.0883 17.7449 9.01729 17.7133C7.86251 17.1811 6.69841 16.6668 5.55511 16.1102C4.84431 15.7638 4.30566 15.1922 3.81649 14.5811C2.9938 13.5554 2.36262 12.4157 1.83831 11.2143C1.82683 11.1877 1.81751 11.1598 1.79312 11.0923C2.2536 11.5464 2.66171 11.9889 3.11286 12.3834C3.778 12.9649 4.46082 13.5253 5.16134 14.0646C5.37652 14.2303 5.66342 14.3107 5.92521 14.401C6.02563 14.4347 6.15402 14.3874 6.28384 14.3458C3.46719 11.8139 2.0793 8.6795 2.12019 4.91895C2.35186 5.89011 2.62729 6.84907 3.07127 7.75138C2.4573 5.27829 1.95952 2.7593 0.342117 0.660614C0.378092 0.686034 0.412135 0.714084 0.443967 0.744533C1.85193 2.31173 3.13725 3.97217 4.12563 5.83703C4.46058 6.46965 4.70302 7.15104 5.00498 7.8023C5.45189 8.78919 6.21721 9.59744 7.17826 10.0975C8.68449 10.9059 10.1656 11.7666 11.6525 12.6136C12.8047 13.2714 13.8457 14.1072 14.7367 15.0903C14.8424 15.1958 14.9384 15.3105 15.0236 15.4332C15.2875 15.8585 15.3578 15.9116 15.8039 15.4626C16.2845 14.9799 16.4746 14.3551 16.5979 13.7067C16.6281 13.5468 16.641 13.3833 16.6632 13.2047C16.2601 13.1164 15.9574 13.3252 15.6067 13.4277L16.032 12.8984C15.5608 12.8518 15.2043 13.0361 14.8443 13.2534L15.4381 12.491L13.9319 12.7062L13.9183 12.6674L14.6599 12.1209C14.449 12.1209 14.3013 12.1316 14.1578 12.1209C13.2821 12.0441 12.7987 11.5614 12.7276 10.6756C12.7033 10.3636 12.7241 10.0487 12.7241 9.66142C12.8144 9.9347 12.8711 10.1441 12.9529 10.3435C13.2548 11.0816 13.8724 11.0357 14.2604 10.5766C14.8707 9.85383 15.6521 9.29511 16.5334 8.95134C16.5684 8.93038 16.6015 8.90638 16.6324 8.87962L15.6124 8.52099V8.49804C15.7172 8.50593 15.8233 8.50521 15.9266 8.52314C16.6438 8.64723 17.3152 8.3926 18.0016 8.26206C19.4705 7.98305 20.9423 7.92065 22.4098 8.26206C22.473 8.27712 22.5741 8.27641 22.6092 8.23839C22.7706 8.06123 22.9184 7.87116 23.0625 7.68037C23.0833 7.6524 23.059 7.59143 23.0582 7.54624C23.0547 7.4114 23.0518 7.27727 23.0489 7.14243L23.0331 7.15032Z" fill="#ED4D6E"/>
<path d="M23.6471 29.761H22.3654V23.0726C22.8137 23.0726 23.2655 23.0654 23.7167 23.0805C23.7734 23.0805 23.8465 23.1902 23.8788 23.2634C24.3761 24.379 24.87 25.496 25.3606 26.6144C25.3832 26.6794 25.4272 26.7348 25.4854 26.7715V23.0841H26.7535V29.7653C26.2995 29.7653 25.8405 29.7717 25.3822 29.7559C25.3276 29.7559 25.2638 29.6347 25.2287 29.5587C24.7462 28.5 24.2659 27.4402 23.7877 26.3791C23.7548 26.2966 23.706 26.2213 23.6442 26.1575L23.6471 29.761Z" fill="#60D394"/>
<path d="M3.89326 26.4272C4.41613 26.6718 4.30998 27.0785 4.31213 27.4486C4.31213 28.2088 4.31213 28.9691 4.31213 29.7481H3.03399V27.2563H1.43882V29.7531H0.161392V23.0712H0.95037C1.6791 23.0712 2.40783 23.0654 3.13584 23.0769C3.25461 23.0829 3.36785 23.1289 3.45717 23.2074C3.74407 23.4786 4.12565 23.7231 4.26766 24.0631C4.40968 24.4031 4.30783 24.8428 4.31285 25.2394C4.31285 25.3219 4.31285 25.4044 4.31285 25.4876C4.3107 25.8383 4.39749 26.2199 3.89326 26.4272ZM3.01247 24.3723H1.44814V25.933H3.01247V24.3723Z" fill="#60D394"/>
<path d="M9.18944 29.7674V23.0712H9.42613C10.3363 23.0712 11.2465 23.0654 12.1567 23.0783C12.29 23.0872 12.4163 23.1408 12.5153 23.2304C12.8022 23.4929 13.1695 23.7325 13.3086 24.0674C13.4478 24.4024 13.3509 24.8306 13.3517 25.2186C13.3517 26.3425 13.356 27.4665 13.3459 28.5897C13.3389 28.7152 13.2899 28.8347 13.2068 28.929C12.9435 29.2159 12.7047 29.5853 12.3712 29.7244C12.0377 29.8635 11.6066 29.7638 11.2178 29.7653C10.5501 29.7689 9.88159 29.7674 9.18944 29.7674ZM10.4805 28.4606H12.0498V24.3723H10.4812L10.4805 28.4606Z" fill="#60D394"/>
<path d="M31.6445 28.1041C31.4415 28.566 31.2407 28.972 31.085 29.3952C30.9789 29.6821 30.8347 29.8098 30.5112 29.7753C30.1878 29.7409 29.8542 29.7682 29.4906 29.7682C29.7101 29.2661 29.9166 28.7898 30.1239 28.315C30.3649 27.7627 30.6131 27.2133 30.8412 26.6553C30.8842 26.5381 30.8842 26.4095 30.8412 26.2924C30.4273 25.2846 29.9991 24.284 29.5759 23.2799C29.5508 23.2211 29.5293 23.1601 29.4963 23.0748C29.9482 23.0748 30.3757 23.0683 30.8032 23.0819C30.8641 23.0819 30.9466 23.173 30.9767 23.2412C31.1661 23.6808 31.344 24.1255 31.5262 24.5681C31.557 24.6398 31.5936 24.7115 31.6466 24.8256C31.8711 24.279 32.0835 23.7791 32.28 23.2734C32.3402 23.1164 32.4234 23.0633 32.5898 23.0697C32.975 23.0834 33.3616 23.074 33.7848 23.074C33.5438 23.6478 33.3178 24.1829 33.0905 24.7237C32.8753 25.233 32.6637 25.7444 32.4385 26.2493C32.4033 26.3225 32.3857 26.4029 32.3872 26.4842C32.3887 26.5654 32.4092 26.6451 32.4471 26.717C32.861 27.6444 33.2633 28.5768 33.6664 29.5071C33.6987 29.5788 33.7288 29.657 33.7762 29.7717C33.3157 29.7717 32.8825 29.7789 32.4507 29.7639C32.3919 29.7639 32.3173 29.6577 32.2843 29.586C32.0792 29.1083 31.8747 28.6327 31.6445 28.1041Z" fill="#60D394"/>
<path d="M6.36634 25.7559H8.03324V27.0275H6.36634V28.4728H8.45857V29.7545H5.07385V23.0905H8.46359V24.35H6.36634V25.7559Z" fill="#60D394"/>
<path d="M19.4799 28.4814H21.5714V29.7545H18.1867V23.0905H21.5764V24.35H19.4792V25.7473H21.1439V27.0268H19.4799V28.4814Z" fill="#60D394"/>
<path d="M14.7224 39.5917C14.8407 38.9791 14.9791 38.3723 15.0724 37.7519C15.2775 36.397 15.3808 35.0357 14.992 33.6966C14.8638 33.2704 14.6769 32.8642 14.4369 32.4894C14.0149 31.8272 13.7043 31.1004 13.5174 30.3377C13.5086 30.2867 13.5034 30.2352 13.5016 30.1835H16.6489C16.8426 31.1912 16.9774 32.1918 16.7852 33.2232C16.4538 34.997 16.0478 36.7463 15.3313 38.4096C15.1556 38.8163 14.9476 39.2101 14.7575 39.6096L14.7224 39.5917Z" fill="#ED4D6E"/>
<path d="M17.0226 25.7494V27.0311H15.3492V29.7466H14.0675V23.0912H17.4536V24.3507H15.3564V25.7494H17.0226Z" fill="#60D394"/>
<path d="M17.7198 42.2513C17.0391 41.4566 16.6604 40.5241 16.5076 39.5027C16.2726 37.9607 16.4136 36.3846 16.9186 34.9087C17.2772 33.8572 17.3095 32.81 17.1761 31.7342C17.1393 31.497 17.1273 31.2566 17.1402 31.0169C17.1944 31.0642 17.2438 31.1165 17.288 31.1733C18.6163 33.2282 18.8968 35.3871 17.9557 37.6809C17.7004 38.3035 17.458 38.9426 17.3102 39.5974C17.1058 40.5155 17.2177 41.4193 17.7198 42.2513Z" fill="#60D394"/>
<path d="M28.7317 29.7617H27.4808V23.0855H28.7317V29.7617Z" fill="#60D394"/>
<path d="M33.6858 3.18319C33.2418 3.86673 32.8093 4.55888 32.3481 5.23238C31.3225 6.73861 30.2251 8.18675 28.8917 9.4405C28.348 9.95119 27.7685 10.4174 27.0856 10.7351C26.869 10.8353 26.6402 10.9065 26.405 10.9467C26.6409 10.7488 26.902 10.5745 27.1072 10.3485C27.5676 9.84145 28.0439 9.33937 28.4362 8.78135C29.5975 7.12736 30.9789 5.67493 32.4342 4.28561C32.8349 3.90307 33.2351 3.52054 33.6349 3.138L33.6858 3.18319Z" fill="#ED4D6E"/>
<path d="M4.73386 4.89813C5.24455 5.53027 5.75332 6.16002 6.26018 6.78738C7.09869 7.84501 8.09574 8.76657 9.21597 9.5194C9.92247 9.98776 10.5544 10.5458 10.9854 11.2953C11.0263 11.367 11.0658 11.4388 11.1038 11.5105C11.1217 11.5456 11.1339 11.5822 11.1755 11.6877C10.7832 11.5012 10.4389 11.3505 10.1075 11.177C9.06124 10.6399 8.10492 9.94323 7.27294 9.112C6.97958 8.81505 6.74934 8.45284 6.50906 8.10784C5.87071 7.19191 5.28973 6.24298 4.83141 5.22161C4.79124 5.13124 4.75968 5.03871 4.72095 4.94619C4.71808 4.93686 4.72884 4.9175 4.73386 4.89813Z" fill="#60D394"/>
<path d="M14.4936 38.2131C14.3637 37.5963 14.2275 36.9809 14.1055 36.3626C13.9083 35.3656 13.9449 34.3607 14.0116 33.3501C14.0302 33.0632 13.985 32.7677 13.9714 32.5074C14.4132 32.8954 14.6578 33.4462 14.7919 34.0602C15.0466 35.2293 14.9426 36.3906 14.7202 37.5489C14.6786 37.7641 14.6248 37.9793 14.5768 38.1988L14.4936 38.2131Z" fill="#60D394"/>
<path d="M22.7749 13.1021C22.2729 13.2649 21.7708 13.4134 21.2788 13.5941C20.7767 13.7792 20.2839 13.995 19.7869 14.198C19.707 14.241 19.6232 14.2764 19.5366 14.3035C19.4046 14.3229 19.2717 14.3351 19.1385 14.34C19.1583 14.215 19.1895 14.0921 19.2317 13.9728C19.6692 13.011 20.375 12.2844 21.24 11.7027C21.2611 11.6904 21.2835 11.6803 21.3067 11.6726C21.311 11.6726 21.3196 11.6797 21.3412 11.6919C20.9467 12.27 20.4769 12.8073 20.2768 13.5568C21.1138 13.2376 21.9099 12.983 22.7749 13.1021Z" fill="#60D394"/>
<path d="M11.3814 22.4371C11.0292 22.4371 10.71 22.4371 10.3908 22.4335C10.3343 22.4263 10.2812 22.4026 10.2381 22.3654C9.7991 22.0348 9.36301 21.7005 8.94701 21.3856C9.66569 21.1088 10.8786 21.4079 11.3814 22.4371Z" fill="black"/>
<path d="M23.5818 7.21272L23.3667 7.22205C23.3129 7.05851 23.2232 6.89641 23.2124 6.73001C23.2055 6.45025 23.2144 6.17031 23.239 5.89154C23.2548 5.59604 23.4154 5.47554 23.7002 5.56591C23.8646 5.61688 24.0216 5.68922 24.1671 5.78109C24.2482 5.83345 24.2919 5.9439 24.3306 6.04575C24.0696 6.00702 23.9899 5.62688 23.6392 5.75885L23.8013 5.84205L23.7009 5.9812L23.8651 6.0271C23.65 6.30612 23.6708 6.58154 23.8429 6.8584C23.8558 6.89283 23.8694 6.93013 23.8824 6.96025C23.8795 7.16252 23.807 7.27943 23.5818 7.21272Z" fill="#ED4D6E"/>
<path d="M23.8845 6.96238C23.8716 6.92866 23.858 6.89495 23.8451 6.86053C23.825 6.68169 23.8054 6.50309 23.7862 6.32474C24.0323 6.62885 24.3464 6.78234 24.7646 6.81247L24.6405 7.08574L24.5587 7.1381L24.289 7.19046L24.4511 6.9674C24.2525 7.02549 24.0717 7.47449 23.8845 6.96238Z" fill="#60D394"/>
<path d="M24.5573 7.14097L24.6391 7.08861C24.8098 6.96954 24.9568 6.84761 24.6842 6.6769C24.6739 6.67008 24.6654 6.66068 24.6598 6.64961C24.6541 6.63855 24.6514 6.6262 24.652 6.61379C24.7402 6.34984 24.5802 6.20136 24.3895 6.05146C24.5939 5.98762 24.771 6.06365 24.8298 6.22862C24.9305 6.52928 25.0009 6.83924 25.04 7.15388C25.0472 7.20193 24.8679 7.27653 24.7753 7.33821L24.7825 7.34467L24.5573 7.14097Z" fill="#ED4D6E"/>
<path d="M23.0418 7.14098C22.983 7.11445 22.8947 7.10297 22.8718 7.05778C22.7656 6.85552 22.6774 6.64393 22.5849 6.43377C22.5717 6.39891 22.5646 6.36202 22.5641 6.32475C22.7054 6.27244 22.8522 6.23634 23.0016 6.21716C23.0432 6.21716 23.1357 6.34985 23.1314 6.41728C23.1149 6.66258 23.0683 6.90573 23.0325 7.14959L23.0418 7.14098Z" fill="#60D394"/>
<path d="M23.5166 8.02463C23.9168 7.93282 24.2675 7.83312 24.6247 7.77646C24.8528 7.74059 24.8528 7.94358 24.8793 8.07914C24.5207 8.12074 24.1793 8.1774 23.8343 8.19175C23.7303 8.19605 23.6206 8.08272 23.5166 8.02463Z" fill="#60D394"/>
<path d="M24.1033 6.27526C24.0839 6.27526 24.0466 6.2688 24.0101 6.26091C23.9735 6.25302 23.9197 6.25302 23.9053 6.22935C23.8972 6.21187 23.8937 6.19258 23.8952 6.17335C23.8967 6.15412 23.9032 6.13561 23.9139 6.11961C23.9304 6.10557 23.95 6.09559 23.9711 6.09048C23.9921 6.08537 24.0141 6.08528 24.0352 6.0902C24.1213 6.13803 24.1969 6.20266 24.2575 6.28028C24.2941 6.33335 24.2754 6.42373 24.2812 6.49545C24.2216 6.49043 24.1377 6.50621 24.1105 6.47465C24.0832 6.44309 24.1033 6.35559 24.1033 6.27526Z" fill="#ED4D6E"/>
<path d="M24.3866 6.63891V6.24585C24.6111 6.31327 24.614 6.46748 24.5086 6.6762L24.3866 6.63891Z" fill="#60D394"/>
<path d="M23.4843 29.6563H22.2026V22.9672C22.6509 22.9672 23.1027 22.9607 23.5539 22.9758C23.6113 22.9758 23.6837 23.0848 23.716 23.158C24.2109 24.274 24.7048 25.3903 25.1978 26.5068C25.2202 26.5721 25.2642 26.6278 25.3226 26.6646V22.9786H26.5936V29.6627C26.1403 29.6627 25.6805 29.6699 25.2222 29.6541C25.1684 29.6541 25.1039 29.5322 25.0687 29.4562C24.5858 28.3975 24.1054 27.3376 23.6278 26.2766C23.5951 26.1939 23.5463 26.1186 23.4843 26.0549V29.6563Z" fill="#ED4D6E"/>
<path d="M3.72972 26.3218C4.25332 26.5664 4.14716 26.9731 4.1486 27.3432C4.1486 28.1034 4.1486 28.8637 4.1486 29.6434H2.86902V27.1524H1.27599V29.6484H0V22.9658H0.788979C1.51699 22.9658 2.24572 22.9607 2.97373 22.9722C3.09229 22.9784 3.20516 23.025 3.29363 23.1042C3.58053 23.3746 3.96211 23.6199 4.10413 23.9592C4.24614 24.2984 4.14429 24.7395 4.14931 25.1354C4.14931 25.2179 4.14931 25.3011 4.14931 25.3836C4.14788 25.7329 4.23538 26.1131 3.72972 26.3218ZM2.84893 24.2676H1.28532V25.8254H2.84893V24.2676Z" fill="#ED4D6E"/>
<path d="M9.02736 29.6627V22.9657H9.26334C10.1735 22.9657 11.0837 22.96 11.9939 22.9729C12.1271 22.9821 12.2534 23.0356 12.3525 23.125C12.6394 23.3875 13.0067 23.6271 13.1451 23.962C13.2835 24.297 13.1874 24.7252 13.1881 25.1132C13.1881 26.2371 13.1924 27.3618 13.1824 28.4843C13.176 28.6099 13.1269 28.7296 13.0433 28.8236C12.78 29.1105 12.5412 29.4806 12.2077 29.619C11.8741 29.7574 11.4431 29.6592 11.0543 29.6599C10.3873 29.6627 9.71879 29.6627 9.02736 29.6627ZM10.3184 28.3559H11.8885V24.2676H10.3191L10.3184 28.3559Z" fill="#ED4D6E"/>
<path d="M31.4817 27.9987C31.2787 28.4613 31.0779 28.8673 30.9222 29.2897C30.8168 29.5766 30.6719 29.7036 30.3484 29.6699C30.0249 29.6362 29.6943 29.6627 29.3306 29.6627L29.9632 28.2103C30.2042 27.6573 30.4524 27.1079 30.6805 26.5506C30.7235 26.4332 30.7235 26.3043 30.6805 26.1869C30.2666 25.1828 29.8392 24.1786 29.4153 23.1744C29.3909 23.1156 29.3694 23.0547 29.3364 22.9693C29.7875 22.9693 30.215 22.9629 30.6425 22.9765C30.7034 22.9765 30.7859 23.0683 30.8161 23.1357C31.0061 23.5754 31.1833 24.0201 31.3662 24.4626C31.3963 24.5344 31.4329 24.6061 31.486 24.7201C31.7105 24.1736 31.9228 23.6744 32.1193 23.168C32.1803 23.0109 32.2628 22.9585 32.4292 22.9643C32.815 22.9786 33.2016 22.9686 33.6241 22.9686C33.3838 23.5424 33.1572 24.0775 32.9298 24.6183C32.7146 25.1275 32.5038 25.6389 32.2778 26.1446C32.2429 26.2177 32.2255 26.298 32.227 26.3791C32.2285 26.4601 32.2489 26.5397 32.2864 26.6115C32.7003 27.5389 33.1034 28.4714 33.5093 29.4024C33.5416 29.4741 33.5717 29.5515 33.6191 29.667C33.1586 29.667 32.7261 29.6735 32.2936 29.6584C32.2355 29.6584 32.1602 29.553 32.1279 29.4805C31.9178 29.0036 31.7126 28.5273 31.4817 27.9987Z" fill="#ED4D6E"/>
<path d="M6.20352 25.6504H7.86826V26.9221H6.20423V28.3674H8.29575V29.6498H4.91103V22.9851H8.30077V24.2446H6.20352V25.6504Z" fill="#ED4D6E"/>
<path d="M19.3171 28.376H21.4086V29.6491H18.0246V22.9851H21.4136V24.2446H19.3164V25.6418H20.9811V26.9221H19.3171V28.376Z" fill="#ED4D6E"/>
<path d="M16.8597 25.6461V26.9278H15.1878V29.6412H13.9047V22.9865H17.2908V24.2453H15.1936V25.6461H16.8597Z" fill="#ED4D6E"/>
<path d="M28.5689 29.6562H27.3188V22.9808H28.5689V29.6562Z" fill="#ED4D6E"/>
<path d="M50.144 10.048H61.792C64.2453 10.048 66.0907 10.656 67.328 11.872C68.5653 13.0667 69.184 14.752 69.184 16.928C69.184 20 67.904 22.048 65.344 23.072L69.824 32H64.8L60.928 23.808H54.784V32H50.144V10.048ZM61.376 19.936C62.3787 19.936 63.1467 19.6693 63.68 19.136C64.2133 18.6027 64.48 17.8667 64.48 16.928C64.48 15.9893 64.2133 15.264 63.68 14.752C63.1467 14.24 62.3787 13.984 61.376 13.984H54.784V19.936H61.376ZM73.2378 10.048H89.1418V13.984H77.8778V19.392H87.9578V23.328H77.8778V32H73.2378V10.048ZM98.2403 20.48L91.3603 10.048H96.9923L101.44 17.152H101.6L106.016 10.048H111.264L104.352 20.416L111.968 32H106.368L101.184 23.744H101.024L95.9043 32H90.6562L98.2403 20.48Z" fill="#60D394"/>
<path d="M114.144 10.048H126.72C127.872 10.048 128.917 10.2827 129.856 10.752C130.795 11.2 131.531 11.84 132.064 12.672C132.597 13.4827 132.864 14.4213 132.864 15.488C132.864 16.704 132.523 17.76 131.84 18.656C131.179 19.5307 130.325 20.1387 129.28 20.48V20.608C130.517 20.8427 131.52 21.4507 132.288 22.432C133.077 23.392 133.472 24.5333 133.472 25.856C133.472 27.84 132.832 29.3653 131.552 30.432C130.293 31.4773 128.683 32 126.72 32H114.144V10.048ZM125.408 18.816C126.261 18.816 126.923 18.6027 127.392 18.176C127.861 17.728 128.096 17.1627 128.096 16.48C128.096 15.6693 127.872 15.0507 127.424 14.624C126.997 14.1973 126.4 13.984 125.632 13.984H118.816V18.816H125.408ZM125.952 28.064C126.763 28.064 127.424 27.8293 127.936 27.36C128.448 26.8907 128.704 26.2187 128.704 25.344C128.704 24.5547 128.448 23.9147 127.936 23.424C127.424 22.9333 126.677 22.688 125.696 22.688H118.816V28.064H125.952ZM137.238 10.048H141.878V32H137.238V10.048ZM156.448 32.384C152.928 32.384 150.197 31.4453 148.256 29.568C146.315 27.6693 145.344 24.8213 145.344 21.024C145.344 17.2267 146.315 14.3893 148.256 12.512C150.197 10.6133 152.928 9.664 156.448 9.664C159.989 9.664 162.731 10.6133 164.672 12.512C166.613 14.3893 167.584 17.2267 167.584 21.024C167.584 24.8213 166.613 27.6693 164.672 29.568C162.731 31.4453 159.989 32.384 156.448 32.384ZM156.448 28.448C158.539 28.448 160.117 27.8507 161.184 26.656C162.272 25.44 162.816 23.7227 162.816 21.504V20.544C162.816 18.3253 162.272 16.6187 161.184 15.424C160.117 14.208 158.539 13.6 156.448 13.6C154.357 13.6 152.779 14.208 151.712 15.424C150.645 16.6187 150.112 18.3253 150.112 20.544V21.504C150.112 23.7227 150.645 25.44 151.712 26.656C152.779 27.8507 154.357 28.448 156.448 28.448Z" fill="#ED4D6E"/>
</svg>
