<svg width="32" height="32" viewBox="0 0 32 32" fill="none" xmlns="http://www.w3.org/2000/svg">
<path d="M32 16.4051C32 17.0231 31.9667 17.6331 31.9014 18.2337C31.8942 18.3007 31.887 18.3683 31.8792 18.4352C31.8381 18.7754 31.7864 19.1129 31.7257 19.4463C31.7139 19.5126 31.7015 19.5782 31.6884 19.6432C30.5573 25.4385 26.4489 30.1304 21.0671 31.9697C20.2559 32.1305 19.9679 31.6195 19.9679 31.1823C19.9679 30.642 19.9862 28.8755 19.9862 26.6806C19.9862 25.1499 19.4749 24.1515 18.9015 23.6426C21.6724 23.3266 24.5531 22.4173 25.6959 19.0626C25.7188 18.997 25.7404 18.93 25.7612 18.8624C25.8253 18.6582 25.8821 18.4452 25.933 18.2229C25.948 18.1567 25.9631 18.0897 25.9767 18.0214C26.1263 17.2949 26.2073 16.4746 26.2073 15.5479C26.2073 13.7574 25.5862 12.2937 24.5603 11.1447C24.7268 10.7315 25.2747 9.0629 24.4036 6.80304C24.4036 6.80304 23.0622 6.36247 20.0078 8.48507C18.7291 8.12146 17.3596 7.93934 16 7.93268C14.6403 7.93934 13.2715 8.12153 11.9948 8.48507C8.93775 6.36247 7.59375 6.80304 7.59375 6.80304C6.72519 9.0629 7.27313 10.7315 7.439 11.1447C6.41563 12.2937 5.79 13.7574 5.79 15.5479C5.79 16.4739 5.871 17.2942 6.02119 18.0207C6.03487 18.089 6.04925 18.156 6.06431 18.2222C6.11525 18.4445 6.17275 18.6581 6.23675 18.8624C6.25763 18.93 6.27987 18.9969 6.30206 19.0625C7.44425 22.4112 10.3171 23.3332 13.0802 23.6553C12.6224 24.0651 12.2077 24.7889 12.064 25.8496C11.151 26.2687 8.83525 26.9932 7.40831 24.4856C7.40831 24.4856 6.56194 22.9107 4.95544 22.7948C4.95544 22.7948 3.39394 22.7741 4.84637 23.7919C4.84637 23.7919 5.89456 24.2968 6.62269 26.1924C6.62269 26.1924 7.56181 29.1205 12.0131 28.1282C12.0203 29.4989 12.0346 30.7912 12.0346 31.1822C12.0346 31.6154 11.7414 32.1237 10.9414 31.9717C5.55625 30.1337 1.44325 25.4412 0.3115 19.6432V19.6426C0.298438 19.5776 0.286 19.512 0.274938 19.4463C0.213563 19.1129 0.161938 18.7754 0.121437 18.4352C0.112938 18.3683 0.10575 18.3013 0.0985625 18.2337C0.0333125 17.6331 0 17.0231 0 16.4051C0 7.34479 7.16475 0 16 0C24.8359 0 32 7.34479 32 16.4051Z" fill="#222123"/>
</svg>
