<svg width="32" height="32" viewBox="0 0 32 32" fill="none" xmlns="http://www.w3.org/2000/svg">
<path d="M13.0845 19.5067C15.4854 18.2618 17.8653 17.0283 20.2672 15.7826C17.8581 14.5255 15.4788 13.2848 13.0845 12.0353C13.0845 14.5344 13.0845 17.008 13.0845 19.5067Z" fill="#3B3B3B"/>
<path d="M16 0C7.16374 0 0 7.16342 0 16C0 24.8366 7.16374 32 16 32C24.8363 32 32 24.8366 32 16C32 7.16342 24.8363 0 16 0ZM26.9016 21.3406C26.6247 22.5421 25.6419 23.4283 24.4591 23.5602C21.6579 23.8735 18.8229 23.8751 15.9993 23.8735C13.1758 23.8751 10.3402 23.8735 7.53825 23.5602C6.35548 23.4283 5.37338 22.5421 5.09708 21.3406C4.70326 19.6292 4.70326 17.7616 4.70326 16C4.70326 14.2384 4.70785 12.3702 5.10167 10.6594C5.37796 9.45792 6.36006 8.57142 7.54283 8.43916C10.3448 8.1262 13.1804 8.12456 16.0039 8.1262C18.8268 8.12456 21.6624 8.1262 24.4634 8.43916C25.6468 8.57142 26.6296 9.4576 26.9059 10.6594C27.2997 12.3705 27.2964 14.2384 27.2964 16C27.2964 17.7616 27.2954 19.6295 26.9016 21.3406Z" fill="#3B3B3B"/>
</svg>
